<svg version="1.1" id="Layer_1" xmlns="http://www.w3.org/2000/svg" xmlns:xlink="http://www.w3.org/1999/xlink" x="0px" y="0px"
	 width="100%" viewBox="0 0 880 608" enable-background="new 0 0 880 608" xml:space="preserve">
<path fill="#435c66" opacity="1.000000" stroke="none" 
	d="
M358.619080,358.502289 
	C354.986023,374.620972 351.471191,390.345154 347.988861,406.076569 
	C347.434204,408.582153 346.127686,411.164917 349.434357,413.087891 
	C350.849274,413.910675 349.839600,415.524597 349.234375,416.681671 
	C347.658539,419.694366 345.166229,421.933075 342.675781,424.145569 
	C341.432861,425.249786 340.036133,426.446045 338.227173,425.597534 
	C336.361877,424.722595 335.640076,422.868225 335.808716,421.005737 
	C336.121948,417.546844 336.518799,414.053131 337.350677,410.690155 
	C345.216339,378.892426 353.177307,347.118225 361.127869,315.341522 
	C361.571228,313.569550 362.118103,311.829865 361.676971,309.417053 
	C351.983917,309.185730 342.238586,309.109436 332.486694,309.679260 
	C325.837189,310.067841 319.190430,310.471741 312.557007,309.406860 
	C308.407104,308.740601 304.501038,307.475983 303.701904,302.752197 
	C302.896027,297.988190 306.677582,295.931671 310.129913,294.314545 
	C330.195862,284.915283 349.902679,274.796936 369.743561,264.945740 
	C373.118469,263.270081 374.696136,261.028503 375.539825,257.558197 
	C386.890320,210.869263 398.452728,164.233414 411.056732,117.862732 
	C411.478729,116.310120 411.737732,114.713203 412.219208,112.447517 
	C407.206726,114.336411 402.867981,115.920311 398.566895,117.600616 
	C372.011749,127.974976 346.102295,139.739838 321.107819,153.490723 
	C318.057556,155.168854 314.791382,156.469086 311.573334,157.820847 
	C310.156982,158.415802 308.526031,158.593781 307.419983,157.228348 
	C306.236847,155.767746 306.554321,154.080322 307.380554,152.533630 
	C308.612518,150.227432 310.746826,148.844772 312.916046,147.617676 
	C342.967499,130.617905 373.870514,115.361755 406.419403,103.758713 
	C413.746033,101.146904 417.703156,97.415512 419.854156,89.834633 
	C424.210236,74.482353 429.701019,59.451893 434.734680,44.292294 
	C435.101685,43.187012 435.442902,42.050098 435.990265,41.032295 
	C437.391998,38.425964 439.293152,35.757332 442.551819,37.146290 
	C445.612000,38.450665 444.202606,41.394211 443.470734,43.733002 
	C438.601837,59.292290 433.693756,74.839310 428.825073,90.398659 
	C428.348816,91.920761 428.053192,93.499397 427.446777,95.980179 
	C433.702881,94.458786 439.103943,93.106369 444.523834,91.834167 
	C465.617035,86.883011 486.876526,86.235191 508.414551,88.445580 
	C521.783325,89.817581 534.842346,91.806419 546.782715,98.236122 
	C557.019592,103.748482 563.960999,112.000389 565.262390,123.908829 
	C566.995056,139.763901 562.073853,153.704102 552.541931,166.323639 
	C540.370483,182.437607 524.539795,194.224442 507.723267,204.866547 
	C484.303955,219.687119 458.890961,230.731934 434.297974,243.324600 
	C417.997009,251.671356 401.534210,259.704041 385.088104,267.763519 
	C382.334106,269.113159 380.690063,270.773987 380.010803,273.928650 
	C378.612061,280.425049 376.868896,286.858459 374.987549,293.235199 
	C374.013702,296.535950 374.655151,297.949188 378.272949,297.790283 
	C399.548401,296.855652 420.824890,295.938019 442.104614,295.107819 
	C457.240173,294.517303 472.380646,294.043579 487.521484,293.607361 
	C489.138062,293.560822 490.875031,293.855927 492.373535,294.451813 
	C494.598358,295.336517 496.511536,296.786194 496.364960,299.596008 
	C496.204010,302.681091 493.872955,303.102753 491.469818,303.530914 
	C482.232330,305.176636 472.866272,304.342743 463.567322,304.918823 
	C442.474213,306.225586 421.321472,306.565521 400.193695,307.318726 
	C391.875885,307.615265 383.562164,308.078888 375.242218,308.237732 
	C371.761597,308.304169 370.806763,310.276367 370.097229,313.139130 
	C366.377899,328.145264 362.542908,343.122772 358.619080,358.502289 
M548.311401,111.181488 
	C533.429932,100.921173 516.129700,99.061401 498.911072,97.400658 
	C474.279602,95.024918 450.560669,99.921577 427.269257,107.522453 
	C424.483673,108.431496 422.937775,109.959610 422.072693,112.879951 
	C408.889618,157.383423 396.708771,202.150223 386.471191,247.430099 
	C385.840271,250.220627 384.504425,253.025024 385.417297,256.324402 
	C386.494446,255.900177 387.441925,255.621246 388.302307,255.174576 
	C421.417114,237.983139 455.043152,221.770874 487.733368,203.772507 
	C506.893250,193.223602 525.251343,181.429489 540.355957,165.257889 
	C547.834839,157.250732 553.965820,148.478210 557.018799,137.766434 
	C560.027527,127.209526 557.778076,118.411049 548.311401,111.181488 
M369.796417,280.673553 
	C370.051147,279.124634 371.336243,277.610107 369.411285,275.307312 
	C354.147766,283.057190 337.831879,289.044342 322.240967,297.402649 
	C324.164948,299.661560 325.528534,299.682800 326.854614,299.646729 
	C338.652039,299.325745 350.447784,298.938568 362.246216,298.663971 
	C364.841064,298.603577 365.592377,297.024658 366.120636,294.941833 
	C367.263947,290.434143 368.475006,285.943634 369.796417,280.673553 
z"/>
<path fill="#435c66" opacity="1.000000" stroke="none" 
	d="
M175.984863,527.065491 
	C182.436264,537.500305 188.679260,547.637634 195.449173,558.630554 
	C189.438202,559.621277 184.536560,559.336365 179.649490,558.987732 
	C178.129044,558.879272 177.609375,557.427002 176.950668,556.279358 
	C170.487656,545.018066 163.792618,533.880859 157.670853,522.436951 
	C154.925552,517.304993 151.440811,515.345703 145.746628,515.870117 
	C142.259872,516.191223 141.174652,517.490601 141.210403,520.808044 
	C141.327133,531.637573 141.069519,542.473450 141.326523,553.298035 
	C141.436020,557.910217 139.832336,559.429199 135.263382,559.315796 
	C126.717216,559.103699 126.680603,559.322021 126.677177,552.526306 
	C126.662994,524.366089 126.789185,496.204865 126.558022,468.046509 
	C126.516228,462.955933 128.017899,461.302673 133.067551,461.618927 
	C144.348755,462.325470 155.729218,460.584839 166.960938,462.631622 
	C180.365341,465.074371 187.769363,473.395874 189.134567,487.158936 
	C190.345169,499.363342 184.552399,508.812164 172.751053,513.914490 
	C171.854279,514.302246 171.004639,514.799011 169.926392,515.350830 
	C170.395096,520.021973 174.121506,522.888000 175.984863,527.065491 
M174.668823,487.005066 
	C172.971329,479.352386 169.605835,476.413177 161.971130,475.094208 
	C156.489700,474.147217 151.013550,474.508484 145.530487,474.342560 
	C142.593475,474.253632 141.245651,475.472961 141.269714,478.456390 
	C141.327545,485.621155 141.344925,492.787750 141.240143,499.951569 
	C141.194901,503.044678 142.695526,504.063171 145.533997,504.007996 
	C150.364548,503.914001 155.205521,504.095306 160.027222,503.858185 
	C170.296860,503.353271 174.860397,498.286774 174.668823,487.005066 
z"/>
<path fill="#435c66" opacity="1.000000" stroke="none" 
	d="
M729.530029,516.186707 
	C726.484009,517.536987 727.286743,519.983887 727.271301,522.010193 
	C727.192444,532.339172 727.041931,542.674377 727.326599,552.996216 
	C727.457886,557.758423 725.927490,559.881470 721.068726,559.253662 
	C719.756958,559.084167 718.400146,559.131958 717.074646,559.227173 
	C713.867981,559.457520 712.646790,558.034241 712.653625,554.828979 
	C712.717102,525.173218 712.692688,495.517242 712.690186,465.861359 
	C712.689941,463.715576 712.910889,461.705658 715.763245,461.767487 
	C727.901001,462.030426 740.122742,460.522583 752.163696,462.557617 
	C766.575623,464.993378 773.657043,473.006165 775.131165,487.386230 
	C776.383301,499.600922 770.120544,509.141998 757.457764,514.339050 
	C756.869812,514.580383 756.336304,514.954407 755.013611,515.693420 
	C763.667175,529.799194 772.211487,543.726929 780.773132,557.682983 
	C772.833862,561.657837 764.859741,559.485352 760.829041,552.542297 
	C755.314087,543.042603 749.357605,533.755249 744.530457,523.915588 
	C741.272095,517.273743 736.895020,514.829224 729.530029,516.186707 
M735.588623,504.002289 
	C739.901733,503.899811 744.236206,504.032379 748.523193,503.642395 
	C755.820679,502.978424 760.630554,497.597443 760.742493,490.415283 
	C760.879944,481.597443 756.838440,476.543274 748.981934,475.206329 
	C743.204163,474.223145 737.411194,474.464600 731.612427,474.301819 
	C728.383667,474.211182 727.146729,475.467896 727.221008,478.676514 
	C727.359436,484.649994 727.255798,490.629028 727.253479,496.605774 
	C727.250732,503.928101 727.251038,503.928101 735.588623,504.002289 
z"/>
<path fill="#435c66" opacity="1.000000" stroke="none" 
	d="
M339.650574,530.669067 
	C341.546082,531.487549 341.831818,533.118591 342.346893,534.437012 
	C347.365570,547.283386 366.297302,551.279114 378.032227,544.439880 
	C382.613739,541.769775 384.757019,537.296082 384.469818,532.239746 
	C384.141907,526.466003 380.624542,522.679077 375.286072,520.251160 
	C365.847565,515.958618 355.499817,514.529175 345.977203,510.498749 
	C335.075745,505.884827 329.083191,498.416992 329.172699,488.072052 
	C329.269409,476.893219 334.449554,468.745697 344.668274,463.940155 
	C359.453247,456.987305 381.407501,460.569580 391.595093,471.729736 
	C394.882019,475.330475 397.166443,479.514069 397.686584,484.668854 
	C394.212250,486.742767 390.307953,486.961334 386.684570,488.034058 
	C384.553894,488.664886 383.516876,487.234497 383.059143,485.544952 
	C379.892212,473.854706 363.049225,470.903870 352.904144,474.852295 
	C347.668701,476.889862 344.713287,480.755920 344.157623,486.545380 
	C343.608765,492.264252 346.535522,495.669189 351.124451,498.099030 
	C356.465698,500.927277 362.402832,502.038910 368.121429,503.784241 
	C375.106537,505.916046 382.078583,507.928070 388.547668,511.616364 
	C403.126923,519.928650 402.796082,543.466248 389.224792,553.496338 
	C376.747406,562.718018 343.980042,562.043396 333.512909,548.463928 
	C333.310333,548.201111 333.038177,547.991394 332.839020,547.726501 
	C329.834351,543.728638 325.465424,539.136597 327.202820,534.561584 
	C328.680420,530.670837 334.988037,531.441223 339.650574,530.669067 
z"/>
<path fill="#435c66" opacity="1.000000" stroke="none" 
	d="
M548.000000,461.703339 
	C554.497559,461.706421 560.497681,461.813904 566.491699,461.670044 
	C569.664978,461.593903 570.908997,462.782349 571.056091,466.003143 
	C571.279175,470.888062 569.962830,474.994629 567.051697,478.974945 
	C552.225708,499.246094 537.577148,519.647034 522.876160,540.009521 
	C521.819763,541.472839 520.840210,542.991760 519.826660,544.482239 
	C521.533508,546.322327 523.482300,545.651978 525.201294,545.659851 
	C539.195374,545.723938 553.195435,545.929810 567.181396,545.588196 
	C572.729126,545.452637 572.422424,548.533325 572.374878,552.236511 
	C572.326721,555.986389 572.940430,559.424194 567.049255,559.344238 
	C546.727905,559.068420 526.399719,559.158203 506.075806,559.314636 
	C501.973206,559.346191 500.636139,557.990417 500.545013,553.870728 
	C500.439972,549.121216 501.704376,545.327209 504.539642,541.495728 
	C518.988525,521.970154 533.213013,502.278259 547.459045,482.603333 
	C548.879944,480.640869 550.767883,478.882904 551.210632,476.293488 
	C549.625366,474.667145 547.683472,475.296967 545.948914,475.288116 
	C532.621277,475.219910 519.286682,474.987640 505.968140,475.336578 
	C499.989624,475.493195 500.765808,471.898468 500.663361,468.210052 
	C500.557098,464.382355 500.642365,461.481354 506.018951,461.603882 
	C519.839539,461.918823 533.672180,461.705475 548.000000,461.703339 
z"/>
<path fill="#435c66" opacity="1.000000" stroke="none" 
	d="
M662.815552,559.232422 
	C648.182800,559.232056 634.029175,559.127991 619.878784,559.295532 
	C615.998901,559.341431 614.629700,558.067688 614.645447,554.135254 
	C614.762329,524.998413 614.763123,495.860657 614.644897,466.723785 
	C614.628540,462.690063 616.239563,461.610962 619.998047,461.649139 
	C634.315491,461.794495 648.639282,461.902679 662.952332,461.612671 
	C668.861938,461.492920 668.125488,465.110016 668.269104,468.830383 
	C668.424377,472.853149 667.890076,475.525513 662.726501,475.339996 
	C653.414246,475.005524 644.078430,475.376160 634.759583,475.154480 
	C630.642273,475.056549 629.099182,476.480530 629.279785,480.642365 
	C629.546753,486.791290 629.490906,492.964722 629.296387,499.119019 
	C629.187195,502.572021 630.420715,503.871063 633.904907,503.799011 
	C641.893372,503.633789 649.891968,503.905212 657.877930,503.687897 
	C661.893921,503.578552 663.494141,504.830261 663.429626,509.058807 
	C663.304993,517.235535 663.516541,517.241455 655.273987,517.249756 
	C648.114563,517.257019 640.953003,517.361694 633.796570,517.216980 
	C630.181641,517.143860 629.236389,518.865967 629.308594,522.125977 
	C629.448669,528.449829 629.490845,534.783325 629.294983,541.104248 
	C629.187073,544.582947 630.457275,545.798645 633.927185,545.742126 
	C643.581421,545.584900 653.240723,545.759583 662.896790,545.671265 
	C666.181396,545.641296 668.749817,546.274475 668.167053,550.253845 
	C667.653015,553.763672 670.713928,559.411499 662.815552,559.232422 
z"/>
<path fill="#435c66" opacity="1.000000" stroke="none" 
	d="
M267.999939,461.705261 
	C273.999115,461.706573 279.505005,461.873413 284.995270,461.652374 
	C288.686279,461.503754 289.966766,462.932495 290.036865,466.564087 
	C290.197296,474.875580 289.983826,475.248138 281.608582,475.252960 
	C273.276398,475.257751 264.938660,475.421844 256.614380,475.162384 
	C252.386963,475.030670 251.082642,476.636383 251.254776,480.694916 
	C251.515808,486.849670 251.474304,493.028687 251.267563,499.187500 
	C251.148727,502.727325 252.544907,503.859711 255.952789,503.792908 
	C263.948547,503.636230 271.952332,503.873047 279.947235,503.695526 
	C283.712433,503.611938 285.332703,504.768524 285.322723,508.802826 
	C285.301788,517.243652 285.486664,517.245117 276.813110,517.253418 
	C269.980743,517.259949 263.145416,517.384338 256.317169,517.219116 
	C252.744400,517.132690 251.143646,518.296387 251.268097,522.085815 
	C251.475815,528.411438 251.457840,534.752747 251.270340,541.079651 
	C251.168381,544.520020 252.369110,545.813354 255.877686,545.753052 
	C265.540131,545.587036 275.213959,545.911621 284.869965,545.612671 
	C289.872223,545.457764 290.220642,548.170349 290.035828,551.893616 
	C289.856537,555.506042 290.758453,559.409729 284.815979,559.318909 
	C270.321320,559.097473 255.820633,559.174133 241.323517,559.283386 
	C237.894821,559.309204 236.623596,558.087219 236.633530,554.618958 
	C236.717621,525.289917 236.720917,495.960388 236.622589,466.631439 
	C236.610458,463.010498 237.769958,461.575531 241.504822,461.656006 
	C250.166199,461.842743 258.834473,461.709290 267.999939,461.705261 
z"/>
<path fill="#435c66" opacity="1.000000" stroke="none" 
	d="
M442.916382,534.000000 
	C442.933685,511.670074 443.061707,489.839203 442.874573,468.011017 
	C442.834991,463.394287 443.890839,461.467316 448.934418,461.630890 
	C457.946075,461.923157 457.974365,461.630402 457.983002,470.463928 
	C458.009521,497.626190 458.042603,524.788513 457.998352,551.950684 
	C457.994476,554.329346 458.990875,557.718628 456.199158,558.690674 
	C452.469818,559.989014 448.265900,559.795837 444.454773,558.481689 
	C442.711548,557.880676 443.057098,555.622986 443.036682,553.995117 
	C442.955109,547.497253 442.948883,540.998474 442.916382,534.000000 
z"/>
</svg>